<?xml version="1.0" encoding="utf-8"?>
<!-- Generator: Adobe Illustrator 27.5.0, SVG Export Plug-In . SVG Version: 6.00 Build 0)  -->
<svg version="1.1" xmlns="http://www.w3.org/2000/svg" xmlns:xlink="http://www.w3.org/1999/xlink" x="0px" y="0px"
	 viewBox="0 0 4975 4975" style="enable-background:new 0 0 4975 4975;" xml:space="preserve">
<g id="Layer_1">
	
</g>
<g id="Isolation_Mode">
	<g>
		<g>
			
				<radialGradient id="SVGID_1_" cx="2390.7644" cy="2264.5093" r="214.0891" gradientTransform="matrix(0.9718 -0.236 0.236 0.9718 -368.3011 662.99)" gradientUnits="userSpaceOnUse">
				<stop  offset="0" style="stop-color:#F7941D"/>
				<stop  offset="1" style="stop-color:#EF4136"/>
			</radialGradient>
			<path style="fill:url(#SVGID_1_);" d="M2502.82,2499.446c93.643-32.326,167.934-107.737,202.143-202.21
				c17.102-47.236,35.764-108.366-9.883-146.365c-20.717-17.088-41.651-18.286-71.178,1.59
				c-29.526,19.877-66.357,73.07-112.75,56.602c-25.87-9.184-45.833-47.335-75.047-75.162
				c-15.922-15.164-37.71-34.799-72.338-34.213s-53.541,22.707-57.144,27.699c-8.6,11.92-14.079,26.389-16.174,40.75
				c-10.428,72.3,8.599,147.292,48.465,208.285c32.999,50.485,80.276,91.377,136.947,113.21
				C2484.44,2493.031,2493.402,2496.301,2502.82,2499.446z"/>
			
				<radialGradient id="SVGID_00000178197110135739637050000007940376722525285284_" cx="1884.5278" cy="2129.5142" r="214.0903" gradientTransform="matrix(0.7751 -0.6319 0.6319 0.7751 -785.7276 1772.8607)" gradientUnits="userSpaceOnUse">
				<stop  offset="0" style="stop-color:#F7941D"/>
				<stop  offset="1" style="stop-color:#EF4136"/>
			</radialGradient>
			<path style="fill:url(#SVGID_00000178197110135739637050000007940376722525285284_);" d="M2118.9,2407.333
				c70.554-69.541,105.071-169.614,95.205-269.604c-4.936-49.994-14.453-113.196-72.022-127.802
				c-26.061-6.486-45.466,1.459-63.537,32.124s-28.368,94.54-77.327,99.683c-27.302,2.867-61.763-22.948-100.12-35.459
				c-20.903-6.818-49.028-15.14-80.02,0.318c-30.992,15.458-38.519,43.572-39.617,49.63c-2.621,14.462-1.327,29.88,2.976,43.741
				c21.764,69.73,71.265,129.191,133.532,167.035c51.541,31.324,111.829,47.836,172.375,43.102
				C2099.55,2409.47,2109.045,2408.556,2118.9,2407.333z"/>
			
				<radialGradient id="SVGID_00000173157988868298947000000018388582466820390301_" cx="1582.1652" cy="1619.1162" r="153.7943" gradientTransform="matrix(0.5007 -0.8656 0.8656 0.5007 -601.7867 2574.2471)" gradientUnits="userSpaceOnUse">
				<stop  offset="0" style="stop-color:#F7941D"/>
				<stop  offset="1" style="stop-color:#EF4136"/>
			</radialGradient>
			<path style="fill:url(#SVGID_00000173157988868298947000000018388582466820390301_);" d="M1702.424,2107.736
				c29.678-64.676,27.376-140.681-4.716-205.328c-16.046-32.322-38.535-72.349-80.921-67.497
				c-19.156,2.281-30.167,12.559-34.495,37.757c-4.328,25.198,5.023,70.722-26.552,86.646c-17.606,8.879-47.327,0.316-76.276,1.682
				c-15.776,0.744-36.787,2.316-53.665,20.592c-16.88,18.275-14.775,39.075-13.97,43.423c1.922,10.381,6.719,20.408,13.138,28.621
				c32.376,41.293,80.767,68.625,132.227,78.185c42.596,7.913,87.294,3.65,126.755-14.95
				C1689.972,2114.099,1696.116,2111.067,1702.424,2107.736z"/>
			
				<radialGradient id="SVGID_00000143576553443788492660000005492683986399065263_" cx="1911.5677" cy="1976.7229" r="153.7958" gradientTransform="matrix(0.8988 -0.4383 0.4383 0.8988 -702.042 1001.9735)" gradientUnits="userSpaceOnUse">
				<stop  offset="0" style="stop-color:#F7941D"/>
				<stop  offset="1" style="stop-color:#EF4136"/>
			</radialGradient>
			<path style="fill:url(#SVGID_00000143576553443788492660000005492683986399065263_);" d="M1922.563,2079.123
				c60.744-37.066,101.293-101.393,110.788-172.939c4.746-35.772,8.454-81.534-29.414-101.188
				c-17.162-8.809-32.036-6.435-49.703,12.048c-17.666,18.482-35.34,61.464-70.424,57.034
				c-19.563-2.471-39.431-26.176-64.205-41.215c-13.501-8.195-31.806-18.628-56.014-12.898
				c-24.21,5.729-34.083,24.156-35.845,28.212c-4.205,9.685-5.827,20.68-5.091,31.078c3.787,52.335,28.656,102.036,65.997,138.712
				c30.91,30.358,70.365,51.791,113.485,58.407C1908.681,2077.443,1915.47,2078.361,1922.563,2079.123z"/>
			
				<radialGradient id="SVGID_00000084496017992017414950000000106922712512188862_" cx="2231.5076" cy="2064.9297" r="153.7995" gradientTransform="matrix(0.956 -0.2932 0.2932 0.956 -546.2934 512.307)" gradientUnits="userSpaceOnUse">
				<stop  offset="0" style="stop-color:#F7941D"/>
				<stop  offset="1" style="stop-color:#EF4136"/>
			</radialGradient>
			<path style="fill:url(#SVGID_00000084496017992017414950000000106922712512188862_);" d="M2210.564,1974.963
				c65.769-27.171,115.825-84.41,136.329-153.611c10.25-34.599,21.027-79.228-13.322-104.53
				c-15.584-11.37-30.647-11.338-50.972,4.173s-44.467,55.223-78.435,45.392c-18.942-5.483-34.883-31.989-57.017-50.697
				c-12.063-10.195-28.522-23.346-53.327-21.451c-24.806,1.895-37.424,18.563-39.795,22.297c-5.66,8.912-8.972,19.522-9.861,29.908
				c-4.396,52.288,12.442,105.251,43.627,147.287c25.813,34.794,61.456,62.102,103.023,75.342
				C2197.11,1971.146,2203.675,1973.108,2210.564,1974.963z"/>
			
				<radialGradient id="SVGID_00000167364819602969340060000015093557433502196116_" cx="2494.6719" cy="2276.0933" r="153.7996" gradientTransform="matrix(0.956 -0.2932 0.2932 0.956 -546.2934 512.307)" gradientUnits="userSpaceOnUse">
				<stop  offset="0" style="stop-color:#F7941D"/>
				<stop  offset="1" style="stop-color:#EF4136"/>
			</radialGradient>
			<path style="fill:url(#SVGID_00000167364819602969340060000015093557433502196116_);" d="M2524.062,2099.676
				c65.77-27.171,115.826-84.41,136.329-153.611c10.252-34.6,21.028-79.228-13.321-104.53
				c-15.584-11.371-30.647-11.338-50.973,4.173c-20.324,15.511-44.467,55.223-78.435,45.391
				c-18.941-5.483-34.882-31.989-57.017-50.696c-12.063-10.195-28.522-23.347-53.327-21.451
				c-24.806,1.895-37.424,18.563-39.795,22.296c-5.66,8.913-8.972,19.523-9.861,29.909c-4.396,52.288,12.442,105.251,43.627,147.287
				c25.814,34.794,61.457,62.102,103.023,75.342C2510.608,2095.858,2517.172,2097.82,2524.062,2099.676z"/>
			
				<radialGradient id="SVGID_00000015334415551363478710000017364918038509027504_" cx="1139.3401" cy="2579.4067" r="214.1015" gradientTransform="matrix(-0.2004 -0.9797 0.9797 -0.2004 -314.4155 4272.0532)" gradientUnits="userSpaceOnUse">
				<stop  offset="0" style="stop-color:#F7941D"/>
				<stop  offset="1" style="stop-color:#EF4136"/>
			</radialGradient>
			<path style="fill:url(#SVGID_00000015334415551363478710000017364918038509027504_);" d="M2184.684,2632.872
				c-28.892-94.757-101.546-171.747-194.71-209.375c-46.583-18.812-106.99-39.688-146.628,4.542
				c-17.832,20.082-19.791,40.958-1.005,71.189c18.788,30.231,70.604,68.975,52.457,114.736
				c-10.121,25.52-48.974,44.078-77.846,72.26c-15.734,15.357-36.15,36.416-36.826,71.043
				c-0.677,34.626,20.741,54.332,25.598,58.114c11.599,9.029,25.858,15.031,40.133,17.647
				c71.873,13.055,147.51-3.225,209.913-40.844c51.654-31.138,94.241-76.892,118.125-132.73
				C2177.603,2651.006,2181.197,2642.17,2184.684,2632.872z"/>
			
				<radialGradient id="SVGID_00000050635405603544922360000008155728927889394877_" cx="1356.053" cy="2162.9707" r="185.4773" gradientTransform="matrix(0.1416 -0.9899 0.9899 0.1416 -696.4717 3415.9316)" gradientUnits="userSpaceOnUse">
				<stop  offset="0" style="stop-color:#F7941D"/>
				<stop  offset="1" style="stop-color:#EF4136"/>
			</radialGradient>
			<path style="fill:url(#SVGID_00000050635405603544922360000008155728927889394877_);" d="M1801.865,2433.431
				c4.108-85.721-32.663-169.73-97.657-227.627c-32.498-28.947-75.67-63.615-120.916-39.117
				c-20.408,11.17-28.103,27.625-21.609,57.767c6.494,30.144,37.44,76.875,9.274,108.898
				c-15.706,17.857-52.814,21.646-84.592,36.199c-17.318,7.931-40.119,19.144-50.783,47.187s1.048,50.371,3.906,54.873
				c6.822,10.751,16.7,19.812,27.578,26.114c54.806,31.636,121.249,40.448,183.13,27.991c51.222-10.311,99.317-35.19,135.104-73.756
				C1790.793,2446.152,1796.306,2439.996,1801.865,2433.431z"/>
			
				<radialGradient id="SVGID_00000047740732191316718060000012221339874896090516_" cx="669.7638" cy="2176.2783" r="177.9718" gradientTransform="matrix(-0.6279 -0.7783 0.7783 -0.6279 362.4231 4600.0742)" gradientUnits="userSpaceOnUse">
				<stop  offset="0" style="stop-color:#F7941D"/>
				<stop  offset="1" style="stop-color:#EF4136"/>
			</radialGradient>
			<path style="fill:url(#SVGID_00000047740732191316718060000012221339874896090516_);" d="M1781.331,2631.352
				c-57.507-58.944-140.546-88.063-223.706-80.287c-41.578,3.891-94.155,11.533-106.541,59.327
				c-5.503,21.634,1.02,37.799,26.432,52.951c25.414,15.151,78.465,23.981,82.532,64.703c2.269,22.707-19.338,51.242-29.902,83.072
				c-5.756,17.349-12.793,40.69-0.075,66.52c12.718,25.828,36.055,32.204,41.085,33.142c12.01,2.241,24.833,1.23,36.373-2.286
				c58.056-17.796,107.695-58.688,139.417-110.289c26.257-42.71,40.24-92.755,36.563-143.104
				C1783.023,2647.446,1782.305,2639.549,1781.331,2631.352z"/>
			
				<radialGradient id="SVGID_00000078736948677391459210000014681514968168848809_" cx="1370.8938" cy="2122.0425" r="124.5089" gradientTransform="matrix(-0.1206 -0.9927 0.9927 -0.1206 -545.568 3857.9048)" gradientUnits="userSpaceOnUse">
				<stop  offset="0" style="stop-color:#F7941D"/>
				<stop  offset="1" style="stop-color:#EF4136"/>
			</radialGradient>
			<path style="fill:url(#SVGID_00000078736948677391459210000014681514968168848809_);" d="M1512.089,2247.01
				c-12.294-56.285-50.789-104.326-103.021-130.517c-26.117-13.093-60.151-28.034-85.206-4.258
				c-11.28,10.801-13.397,22.81-3.929,41.216c9.47,18.406,37.684,43.299,25.012,68.973c-7.064,14.316-30.458,23.247-48.519,38.225
				c-9.843,8.164-22.666,19.41-24.686,39.45c-2.02,20.039,9.469,32.469,12.106,34.888c6.299,5.779,14.283,9.929,22.434,12.118
				c41.046,10.943,85.654,5.063,123.595-13.809c31.404-15.622,58.241-40.141,74.709-71.385
				C1507.131,2257.188,1509.63,2252.234,1512.089,2247.01z"/>
			
				<radialGradient id="SVGID_00000103978372863415631350000013283528652263177113_" cx="2007.3086" cy="2751.2905" r="124.5111" gradientTransform="matrix(0.7686 -0.6397 0.6397 0.7686 -1409.9034 877.4604)" gradientUnits="userSpaceOnUse">
				<stop  offset="0" style="stop-color:#F7941D"/>
				<stop  offset="1" style="stop-color:#EF4136"/>
			</radialGradient>
			<path style="fill:url(#SVGID_00000103978372863415631350000013283528652263177113_);" d="M1951.102,1809.052
				c40.618-40.856,60.102-99.253,53.775-157.341c-3.166-29.043-9.073-65.74-42.637-73.894c-15.192-3.619-26.43,1.116-36.758,19.054
				s-15.939,55.143-44.38,58.423c-15.859,1.83-36.051-12.981-58.429-20.031c-12.197-3.841-28.6-8.515-46.533,0.658
				c-17.931,9.172-22.142,25.565-22.745,29.093c-1.438,8.426-0.595,17.384,1.988,25.419c13.068,40.42,42.203,74.707,78.636,96.347
				c30.156,17.911,65.313,27.158,100.493,24.048C1939.861,1810.407,1945.377,1809.82,1951.102,1809.052z"/>
			
				<radialGradient id="SVGID_00000113340788925440378210000000007360940888575906_" cx="2405.3936" cy="2906.9714" r="124.5083" gradientTransform="matrix(0.957 -0.2901 0.2901 0.957 -924.9449 -500.6661)" gradientUnits="userSpaceOnUse">
				<stop  offset="0" style="stop-color:#F7941D"/>
				<stop  offset="1" style="stop-color:#EF4136"/>
			</radialGradient>
			<path style="fill:url(#SVGID_00000113340788925440378210000000007360940888575906_);" d="M2234.605,1699.207
				c53.317-21.824,93.994-68.033,110.776-124.001c8.389-27.986,17.231-64.088-10.512-84.663c-12.586-9.247-24.781-9.26-41.276,3.244
				c-16.496,12.503-36.146,44.591-63.621,36.541c-15.321-4.487-28.155-25.989-46.025-41.193c-9.74-8.286-23.03-18.975-43.119-17.506
				c-20.086,1.47-30.347,14.931-32.275,17.946c-4.604,7.202-7.314,15.782-8.063,24.189c-3.695,42.319,9.796,85.242,34.934,119.357
				c20.807,28.236,49.591,50.438,83.208,61.266C2223.725,1696.081,2229.034,1697.687,2234.605,1699.207z"/>
			
				<radialGradient id="SVGID_00000096060733407942419800000018242790253094961825_" cx="2648.4539" cy="3094.2407" r="124.5083" gradientTransform="matrix(0.957 -0.2901 0.2901 0.957 -924.9449 -500.6661)" gradientUnits="userSpaceOnUse">
				<stop  offset="0" style="stop-color:#F7941D"/>
				<stop  offset="1" style="stop-color:#EF4136"/>
			</radialGradient>
			<path style="fill:url(#SVGID_00000096060733407942419800000018242790253094961825_);" d="M2521.541,1807.912
				c53.318-21.824,93.994-68.033,110.776-124.002c8.388-27.985,17.231-64.087-10.512-84.663c-12.586-9.247-24.78-9.259-41.276,3.244
				c-16.496,12.504-36.146,44.591-63.621,36.542c-15.32-4.487-28.154-25.989-46.024-41.193c-9.74-8.286-23.03-18.976-43.119-17.506
				c-20.086,1.469-30.347,14.931-32.275,17.946c-4.604,7.202-7.314,15.782-8.063,24.188c-3.695,42.32,9.796,85.243,34.934,119.357
				c20.807,28.236,49.591,50.438,83.208,61.267C2510.66,1804.786,2515.97,1806.392,2521.541,1807.912z"/>
			
				<radialGradient id="SVGID_00000103972638761585785010000010005707233392981949_" cx="1091.4445" cy="1983.1427" r="124.5075" gradientTransform="matrix(-0.303 -0.953 0.953 -0.303 -261.2752 4135.9556)" gradientUnits="userSpaceOnUse">
				<stop  offset="0" style="stop-color:#F7941D"/>
				<stop  offset="1" style="stop-color:#EF4136"/>
			</radialGradient>
			<path style="fill:url(#SVGID_00000103972638761585785010000010005707233392981949_);" d="M1413.454,2479.076
				c-22.544-53.018-69.299-93.065-125.49-109.089c-28.096-8.009-64.314-16.362-84.513,11.657
				c-9.075,12.709-8.923,24.903,3.802,41.228c12.727,16.325,45.076,35.539,37.399,63.12c-4.28,15.381-25.606,28.504-40.567,46.579
				c-8.154,9.851-18.662,23.284-16.922,43.352c1.741,20.064,15.34,30.142,18.381,32.029c7.264,4.506,15.879,7.101,24.295,7.735
				c42.365,3.121,85.103-10.949,118.873-36.546c27.953-21.188,49.763-50.269,60.136-84.029
				C1410.475,2489.998,1412.009,2484.667,1413.454,2479.076z"/>
			
				<radialGradient id="SVGID_00000099630106413729121490000010211637475125297044_" cx="656.7184" cy="1947.6697" r="124.5083" gradientTransform="matrix(-0.5996 -0.8003 0.8003 -0.5996 179.4261 4467.0269)" gradientUnits="userSpaceOnUse">
				<stop  offset="0" style="stop-color:#F7941D"/>
				<stop  offset="1" style="stop-color:#EF4136"/>
			</radialGradient>
			<path style="fill:url(#SVGID_00000099630106413729121490000010211637475125297044_);" d="M1448.238,2720.678
				c-38.729-42.652-96.056-65.088-154.391-61.736c-29.167,1.68-66.117,5.704-75.974,38.811
				c-4.389,14.986-0.234,26.451,17.153,37.682c17.388,11.229,54.258,18.731,56.081,47.305c1.018,15.932-14.804,35.341-22.986,57.33
				c-4.459,11.985-9.963,28.129-1.718,46.506c8.245,18.377,24.401,23.418,27.894,24.2c8.342,1.866,17.332,1.481,25.488-0.688
				c41.035-10.988,76.764-38.335,100.235-73.615c19.427-29.203,30.457-63.841,29.146-99.135
				C1449.018,2731.972,1448.713,2726.432,1448.238,2720.678z"/>
			
				<radialGradient id="SVGID_00000147191719497628121500000004903110055114082700_" cx="1911.0203" cy="2264.9314" r="101.3258" gradientTransform="matrix(0.188 -0.9822 0.9822 0.188 -1122.4746 3282.5093)" gradientUnits="userSpaceOnUse">
				<stop  offset="0" style="stop-color:#F7941D"/>
				<stop  offset="1" style="stop-color:#EF4136"/>
			</radialGradient>
			<path style="fill:url(#SVGID_00000147191719497628121500000004903110055114082700_);" d="M1550.188,1864.795
				c4.443-46.675-13.466-93.466-47.447-126.731c-16.992-16.63-39.66-36.659-64.981-24.452
				c-11.424,5.571-16.046,14.353-13.277,30.969c2.77,16.617,18.458,42.914,2.264,59.666c-9.029,9.342-29.378,10.457-47.093,17.582
				c-9.655,3.883-22.386,9.417-28.926,24.447c-6.539,15.03-0.721,27.515,0.723,30.045c3.447,6.042,8.604,11.24,14.379,14.96
				c29.096,18.672,65.129,25.187,99.22,19.979c28.218-4.311,55.104-16.654,75.623-36.781
				C1543.818,1871.452,1546.984,1868.234,1550.188,1864.795z"/>
			
				<radialGradient id="SVGID_00000103258418227162415460000013676517235488007300_" cx="2676.7729" cy="3080.804" r="101.3251" gradientTransform="matrix(0.9547 -0.2977 0.2977 0.9547 -1223.8866 -775.1917)" gradientUnits="userSpaceOnUse">
				<stop  offset="0" style="stop-color:#F7941D"/>
				<stop  offset="1" style="stop-color:#EF4136"/>
			</radialGradient>
			<path style="fill:url(#SVGID_00000103258418227162415460000013676517235488007300_);" d="M2261.148,1463.248
				c43.25-18.104,76.055-55.972,89.35-101.628c6.646-22.829,13.61-52.265-9.101-68.831c-10.302-7.443-20.226-7.375-33.569,2.906
				c-13.344,10.283-29.129,36.521-51.539,30.148c-12.497-3.553-23.081-20.968-37.722-33.226
				c-7.979-6.68-18.864-15.294-35.203-13.969c-16.337,1.325-24.6,12.347-26.15,14.813c-3.701,5.892-5.851,12.891-6.405,19.737
				c-2.734,34.463,8.522,69.308,29.199,96.907c17.115,22.846,40.684,40.727,68.11,49.322
				C2252.273,1460.773,2256.604,1462.046,2261.148,1463.248z"/>
			
				<radialGradient id="SVGID_00000126284909383686751920000016920581531739198088_" cx="2944.5762" cy="3099.7678" r="74.79" gradientTransform="matrix(0.9547 -0.2977 0.2977 0.9547 -1223.8866 -775.1917)" gradientUnits="userSpaceOnUse">
				<stop  offset="0" style="stop-color:#F7941D"/>
				<stop  offset="1" style="stop-color:#EF4136"/>
			</radialGradient>
			<path style="fill:url(#SVGID_00000126284909383686751920000016920581531739198088_);" d="M2519.228,1376.992
				c31.923-13.363,56.137-41.314,65.951-75.014c4.906-16.85,10.046-38.577-6.718-50.805c-7.604-5.495-14.929-5.444-24.777,2.145
				c-9.851,7.59-21.502,26.958-38.043,22.253c-9.225-2.623-17.036-15.477-27.843-24.524c-5.891-4.931-13.924-11.289-25.983-10.311
				c-12.059,0.979-18.158,9.113-19.303,10.934c-2.731,4.348-4.318,9.514-4.728,14.568c-2.019,25.438,6.291,51.157,21.552,71.529
				c12.633,16.863,30.029,30.062,50.273,36.406C2512.677,1375.166,2515.874,1376.105,2519.228,1376.992z"/>
			
				<radialGradient id="SVGID_00000113337499664551720820000004489182881577588906_" cx="2478.8738" cy="2771.3682" r="101.3305" gradientTransform="matrix(0.8401 -0.5424 0.5424 0.8401 -1572.5428 400.4636)" gradientUnits="userSpaceOnUse">
				<stop  offset="0" style="stop-color:#F7941D"/>
				<stop  offset="1" style="stop-color:#EF4136"/>
			</radialGradient>
			<path style="fill:url(#SVGID_00000113337499664551720820000004489182881577588906_);" d="M2050.253,1471.471
				c36.822-29.024,58.289-74.294,58.873-121.844c0.29-23.774-0.884-54-27.2-63.88c-11.919-4.412-21.462-1.689-31.565,11.79
				c-10.103,13.48-18.284,42.989-41.583,42.849c-12.992-0.077-27.853-14.021-45.241-21.912c-9.478-4.3-22.271-9.684-37.659-4.031
				c-15.385,5.651-20.395,18.483-21.228,21.274c-1.989,6.666-2.186,13.986-0.887,20.731c6.594,33.937,26.771,64.494,54.083,85.549
				c22.607,17.428,50.104,28.345,78.831,29.282C2041.04,1471.464,2045.554,1471.53,2050.253,1471.471z"/>
			
				<radialGradient id="SVGID_00000137816578822644013270000012302503564991627681_" cx="2862.2578" cy="3100.3127" r="101.3324" gradientTransform="matrix(0.9369 -0.3495 0.3495 0.9369 -1261.9838 -439.4897)" gradientUnits="userSpaceOnUse">
				<stop  offset="0" style="stop-color:#F7941D"/>
				<stop  offset="1" style="stop-color:#EF4136"/>
			</radialGradient>
			<path style="fill:url(#SVGID_00000137816578822644013270000012302503564991627681_);" d="M2520.719,1558.088
				c42.193-20.444,72.877-60.05,83.654-106.366c5.387-23.159,10.728-52.932-12.854-68.23c-10.694-6.868-20.6-6.257-33.361,4.739
				c-12.761,10.998-27.084,38.062-49.812,32.924c-12.672-2.863-24.193-19.673-39.483-31.112
				c-8.333-6.234-19.673-14.239-35.916-12.021c-16.239,2.217-23.888,13.675-25.3,16.222c-3.373,6.084-5.137,13.191-5.315,20.057
				c-0.845,34.562,12.303,68.737,34.459,95.165c18.34,21.875,42.852,38.439,70.709,45.521
				C2511.722,1556.104,2516.116,1557.138,2520.719,1558.088z"/>
			
				<radialGradient id="SVGID_00000140001177216968328730000014839138722881463475_" cx="1266.6864" cy="2289.5503" r="101.331" gradientTransform="matrix(-0.2991 -0.9542 0.9542 -0.2991 -620.5888 4124.4424)" gradientUnits="userSpaceOnUse">
				<stop  offset="0" style="stop-color:#F7941D"/>
				<stop  offset="1" style="stop-color:#EF4136"/>
			</radialGradient>
			<path style="fill:url(#SVGID_00000140001177216968328730000014839138722881463475_);" d="M1279.285,2218.457
				c-18.171-43.222-56.088-75.968-101.765-89.195c-22.838-6.611-52.286-13.53-68.817,9.206c-7.428,10.313-7.345,20.237,2.957,33.564
				c10.303,13.328,36.566,29.072,30.227,51.494c-3.533,12.504-20.933,23.112-33.168,37.771
				c-6.668,7.991-15.266,18.889-13.916,35.226c1.351,16.334,12.384,24.582,14.853,26.127c5.896,3.691,12.898,5.831,19.746,6.375
				c34.468,2.682,69.295-8.629,96.863-29.347c22.819-17.151,40.665-40.746,49.218-68.186
				C1276.824,2227.337,1278.09,2223.004,1279.285,2218.457z"/>
			
				<radialGradient id="SVGID_00000073693411681274737880000016193834958857936826_" cx="1558.7358" cy="2522.1824" r="101.3317" gradientTransform="matrix(0.1268 -0.9919 0.9919 0.1268 -1409.6139 3220.167)" gradientUnits="userSpaceOnUse">
				<stop  offset="0" style="stop-color:#F7941D"/>
				<stop  offset="1" style="stop-color:#EF4136"/>
			</radialGradient>
			<path style="fill:url(#SVGID_00000073693411681274737880000016193834958857936826_);" d="M1380.465,2021.788
				c1.543-46.86-19.23-92.451-55.207-123.547c-17.989-15.546-41.855-34.132-66.372-20.38c-11.057,6.268-15.126,15.32-11.333,31.731
				c3.794,16.413,21.081,41.688,5.955,59.412c-8.433,9.885-28.673,12.256-45.912,20.464c-9.397,4.475-21.761,10.786-27.357,26.193
				c-5.595,15.406,0.985,27.507,2.583,29.943c3.816,5.817,9.284,10.686,15.278,14.041c30.197,16.833,66.565,21.103,100.267,13.795
				c27.897-6.053,53.967-20.037,73.2-41.396C1374.52,2028.828,1377.48,2025.42,1380.465,2021.788z"/>
			
				<radialGradient id="SVGID_00000124134599599295394130000000148437863231824297_" cx="1043.2689" cy="2122.7764" r="101.3308" gradientTransform="matrix(-0.2991 -0.9542 0.9542 -0.2991 -620.5888 4124.4424)" gradientUnits="userSpaceOnUse">
				<stop  offset="0" style="stop-color:#F7941D"/>
				<stop  offset="1" style="stop-color:#EF4136"/>
			</radialGradient>
			<path style="fill:url(#SVGID_00000124134599599295394130000000148437863231824297_);" d="M1186.973,2481.524
				c-18.171-43.222-56.088-75.968-101.765-89.195c-22.838-6.61-52.285-13.529-68.816,9.206c-7.428,10.313-7.345,20.237,2.957,33.564
				c10.303,13.328,36.566,29.072,30.227,51.493c-3.533,12.504-20.933,23.112-33.168,37.772
				c-6.669,7.989-15.266,18.888-13.916,35.224c1.352,16.335,12.384,24.582,14.854,26.128c5.896,3.691,12.898,5.83,19.746,6.375
				c34.468,2.683,69.294-8.629,96.863-29.346c22.819-17.15,40.665-40.746,49.218-68.186
				C1184.512,2490.403,1185.778,2486.071,1186.973,2481.524z"/>
			
				<radialGradient id="SVGID_00000129170385715616528770000003494855887742498728_" cx="662.2282" cy="2048.2263" r="101.3277" gradientTransform="matrix(-0.636 -0.7717 0.7717 -0.636 -33.3778 4595.3208)" gradientUnits="userSpaceOnUse">
				<stop  offset="0" style="stop-color:#F7941D"/>
				<stop  offset="1" style="stop-color:#EF4136"/>
			</radialGradient>
			<path style="fill:url(#SVGID_00000129170385715616528770000003494855887742498728_);" d="M1208.503,2734.647
				c-33.092-33.216-80.541-49.298-127.838-44.376c-23.648,2.463-53.535,7.127-60.302,34.41
				c-3.005,12.349,0.805,21.514,15.362,29.988c14.559,8.475,44.815,13.187,47.373,36.346c1.429,12.914-10.704,29.287-16.528,47.473
				c-3.175,9.911-7.042,23.241,0.353,37.871c7.395,14.628,20.72,18.121,23.589,18.623c6.852,1.204,14.144,0.553,20.694-1.518
				c32.945-10.477,60.962-34.055,78.716-63.619c14.694-24.473,22.356-53.048,19.963-81.689
				C1209.562,2743.801,1209.105,2739.311,1208.503,2734.647z"/>
			
				<radialGradient id="SVGID_00000157287902536674130310000015446038513031653777_" cx="2232.6274" cy="2381.137" r="101.3318" gradientTransform="matrix(0.6063 -0.7952 0.7952 0.6063 -1632.1628 1978.2117)" gradientUnits="userSpaceOnUse">
				<stop  offset="0" style="stop-color:#F7941D"/>
				<stop  offset="1" style="stop-color:#EF4136"/>
			</radialGradient>
			<path style="fill:url(#SVGID_00000157287902536674130310000015446038513031653777_);" d="M1679.482,1716.071
				c24.794-39.793,29.634-89.66,14.056-134.59c-7.792-22.463-19.147-50.499-47.255-50.867c-12.71-0.108-20.764,5.69-25.696,21.797
				c-4.932,16.108-2.62,46.643-24.584,54.413c-12.249,4.335-30.958-3.743-49.992-5.268c-10.374-0.83-24.236-1.556-36.793,8.98
				c-12.557,10.535-12.917,24.305-12.754,27.213c0.391,6.946,2.689,13.898,6.198,19.803c17.714,29.689,47.06,51.591,79.894,62.134
				c27.179,8.727,56.748,9.671,84.09,0.809C1670.812,1719.189,1675.082,1717.721,1679.482,1716.071z"/>
			
				<radialGradient id="SVGID_00000165951899720996910200000009378028640400727179_" cx="2450.7668" cy="2460.2844" r="101.3226" gradientTransform="matrix(0.822 -0.5696 0.5696 0.822 -1614.0782 870.2672)" gradientUnits="userSpaceOnUse">
				<stop  offset="0" style="stop-color:#F7941D"/>
				<stop  offset="1" style="stop-color:#EF4136"/>
			</radialGradient>
			<path style="fill:url(#SVGID_00000165951899720996910200000009378028640400727179_);" d="M1841.762,1582.732
				c35.855-30.21,55.834-76.156,54.868-123.699c-0.486-23.771-2.644-53.943-29.269-62.959c-12.058-4.021-21.506-0.989-31.165,12.813
				c-9.658,13.803-16.873,43.562-40.164,44.182c-12.988,0.347-28.295-13.106-45.932-20.424c-9.612-3.989-22.575-8.953-37.77-2.802
				c-15.193,6.151-19.782,19.139-20.523,21.956c-1.77,6.728-1.728,14.049-0.21,20.749c7.697,33.704,28.86,63.587,56.844,83.741
				c23.164,16.681,51.002,26.696,79.744,26.696C1832.553,1583.025,1837.066,1582.944,1841.762,1582.732z"/>
			
				<radialGradient id="SVGID_00000010270598368419863200000017189244231803071878_" cx="1864.5032" cy="2113.189" r="214.0904" gradientTransform="matrix(-0.7751 -0.6319 -0.6319 0.7751 5727.4038 1772.8607)" gradientUnits="userSpaceOnUse">
				<stop  offset="0" style="stop-color:#F7941D"/>
				<stop  offset="1" style="stop-color:#EF4136"/>
			</radialGradient>
			<path style="fill:url(#SVGID_00000010270598368419863200000017189244231803071878_);" d="M2848.613,2407.333
				c-70.555-69.541-105.071-169.614-95.205-269.604c4.936-49.994,14.453-113.196,72.022-127.802
				c26.062-6.486,45.466,1.459,63.538,32.124c18.07,30.665,28.367,94.54,77.326,99.683c27.302,2.867,61.763-22.948,100.12-35.459
				c20.904-6.818,49.028-15.14,80.02,0.318c30.992,15.458,38.519,43.572,39.617,49.63c2.62,14.462,1.327,29.88-2.976,43.741
				c-21.764,69.73-71.265,129.191-133.532,167.035c-51.541,31.324-111.828,47.836-172.374,43.102
				C2867.963,2409.47,2858.468,2408.556,2848.613,2407.333z"/>
			
				<radialGradient id="SVGID_00000010307508430683039410000013551473953306052279_" cx="1546.426" cy="1557.3318" r="153.7944" gradientTransform="matrix(-0.5007 -0.8656 -0.8656 0.5007 5543.4629 2574.2471)" gradientUnits="userSpaceOnUse">
				<stop  offset="0" style="stop-color:#F7941D"/>
				<stop  offset="1" style="stop-color:#EF4136"/>
			</radialGradient>
			<path style="fill:url(#SVGID_00000010307508430683039410000013551473953306052279_);" d="M3310.627,2107.736
				c-29.677-64.676-27.375-140.681,4.716-205.328c16.047-32.322,38.535-72.349,80.923-67.497
				c19.154,2.281,30.165,12.559,34.494,37.757c4.328,25.198-5.023,70.722,26.551,86.646c17.606,8.879,47.328,0.316,76.277,1.682
				c15.776,0.744,36.786,2.316,53.664,20.592c16.88,18.275,14.775,39.075,13.971,43.423c-1.924,10.381-6.72,20.408-13.139,28.621
				c-32.375,41.293-80.766,68.625-132.227,78.185c-42.596,7.913-87.294,3.65-126.755-14.95
				C3323.08,2114.099,3316.936,2111.067,3310.627,2107.736z"/>
			
				<radialGradient id="SVGID_00000085249883631543959030000002305122218804005803_" cx="1847.4128" cy="1945.4377" r="153.796" gradientTransform="matrix(-0.8988 -0.4383 -0.4383 0.8988 5643.7188 1001.9735)" gradientUnits="userSpaceOnUse">
				<stop  offset="0" style="stop-color:#F7941D"/>
				<stop  offset="1" style="stop-color:#EF4136"/>
			</radialGradient>
			<path style="fill:url(#SVGID_00000085249883631543959030000002305122218804005803_);" d="M3090.488,2079.123
				c-60.744-37.066-101.293-101.393-110.787-172.939c-4.746-35.772-8.455-81.534,29.412-101.188
				c17.162-8.809,32.037-6.435,49.703,12.048c17.666,18.482,35.341,61.464,70.424,57.034c19.563-2.471,39.432-26.176,64.206-41.215
				c13.501-8.195,31.805-18.628,56.014-12.898c24.209,5.729,34.083,24.156,35.845,28.212c4.205,9.685,5.826,20.68,5.091,31.078
				c-3.787,52.335-28.656,102.036-65.997,138.712c-30.91,30.358-70.366,51.791-113.486,58.407
				C3104.371,2077.443,3097.581,2078.361,3090.488,2079.123z"/>
			
				<radialGradient id="SVGID_00000072976516209073293840000000642778154731951517_" cx="2163.2664" cy="2044.0001" r="153.7994" gradientTransform="matrix(-0.956 -0.2932 -0.2932 0.956 5487.9697 512.307)" gradientUnits="userSpaceOnUse">
				<stop  offset="0" style="stop-color:#F7941D"/>
				<stop  offset="1" style="stop-color:#EF4136"/>
			</radialGradient>
			<path style="fill:url(#SVGID_00000072976516209073293840000000642778154731951517_);" d="M2802.488,1974.963
				c-65.77-27.171-115.827-84.41-136.33-153.611c-10.251-34.599-21.027-79.228,13.321-104.53
				c15.585-11.37,30.648-11.338,50.973,4.173c20.325,15.511,44.467,55.223,78.435,45.392c18.941-5.483,34.883-31.989,57.017-50.697
				c12.063-10.195,28.522-23.346,53.327-21.451c24.807,1.895,37.426,18.563,39.796,22.297c5.659,8.912,8.971,19.522,9.86,29.908
				c4.396,52.288-12.441,105.251-43.627,147.287c-25.813,34.794-61.456,62.102-103.023,75.342
				C2815.94,1971.146,2809.377,1973.108,2802.488,1974.963z"/>
			
				<radialGradient id="SVGID_00000088109493434831582950000000114131928852034474_" cx="1091.8896" cy="2616.7742" r="214.1017" gradientTransform="matrix(0.2004 -0.9797 -0.9797 -0.2004 5256.0923 4272.0532)" gradientUnits="userSpaceOnUse">
				<stop  offset="0" style="stop-color:#F7941D"/>
				<stop  offset="1" style="stop-color:#EF4136"/>
			</radialGradient>
			<path style="fill:url(#SVGID_00000088109493434831582950000000114131928852034474_);" d="M2710.875,2671.871
				c28.893-94.758,101.547-171.747,194.711-209.375c46.583-18.812,106.99-39.688,146.629,4.542
				c17.831,20.082,19.79,40.958,1.004,71.189c-18.787,30.231-70.604,68.975-52.456,114.736c10.12,25.519,48.973,44.078,77.845,72.26
				c15.734,15.358,36.151,36.416,36.827,71.042c0.677,34.627-20.741,54.332-25.598,58.115
				c-11.599,9.029-25.858,15.031-40.134,17.648c-71.873,13.054-147.51-3.227-209.912-40.846
				c-51.653-31.137-94.241-76.891-118.125-132.73C2717.957,2690.005,2714.361,2681.169,2710.875,2671.871z"/>
			
				<radialGradient id="SVGID_00000144297356125646324060000009483810309689997216_" cx="1356.8773" cy="2168.7334" r="185.4775" gradientTransform="matrix(-0.1416 -0.9899 -0.9899 0.1416 5638.1484 3415.9316)" gradientUnits="userSpaceOnUse">
				<stop  offset="0" style="stop-color:#F7941D"/>
				<stop  offset="1" style="stop-color:#EF4136"/>
			</radialGradient>
			<path style="fill:url(#SVGID_00000144297356125646324060000009483810309689997216_);" d="M3133.99,2433.431
				c-4.107-85.721,32.664-169.73,97.658-227.627c32.498-28.947,75.669-63.615,120.915-39.117
				c20.407,11.17,28.102,27.625,21.608,57.767c-6.494,30.144-37.439,76.875-9.273,108.898
				c15.705,17.857,52.814,21.646,84.592,36.199c17.317,7.931,40.119,19.144,50.783,47.187s-1.049,50.371-3.906,54.873
				c-6.822,10.751-16.7,19.812-27.578,26.114c-54.805,31.636-121.248,40.448-183.13,27.991
				c-51.222-10.311-99.317-35.19-135.104-73.756C3145.063,2446.152,3139.551,2439.996,3133.99,2433.431z"/>
			
				<radialGradient id="SVGID_00000004505995856719872170000016617799401319488664_" cx="688.4853" cy="2153.0723" r="177.9719" gradientTransform="matrix(0.6279 -0.7783 -0.7783 -0.6279 4579.2534 4600.0742)" gradientUnits="userSpaceOnUse">
				<stop  offset="0" style="stop-color:#F7941D"/>
				<stop  offset="1" style="stop-color:#EF4136"/>
			</radialGradient>
			<path style="fill:url(#SVGID_00000004505995856719872170000016617799401319488664_);" d="M3190.162,2631.352
				c57.507-58.944,140.546-88.063,223.705-80.287c41.578,3.891,94.156,11.533,106.542,59.327
				c5.503,21.634-1.02,37.799-26.432,52.951c-25.414,15.151-78.466,23.981-82.532,64.703c-2.27,22.707,19.339,51.242,29.901,83.072
				c5.756,17.349,12.793,40.69,0.075,66.52c-12.719,25.828-36.056,32.204-41.086,33.142c-12.01,2.241-24.833,1.23-36.373-2.286
				c-58.056-17.796-107.694-58.688-139.417-110.289c-26.257-42.71-40.239-92.755-36.563-143.104
				C3188.469,2647.446,3189.188,2639.549,3190.162,2631.352z"/>
			
				<radialGradient id="SVGID_00000023990924905811796330000006510040767711164333_" cx="1336.906" cy="2103.9109" r="124.5089" gradientTransform="matrix(0.1206 -0.9927 -0.9927 -0.1206 5487.2446 3857.9048)" gradientUnits="userSpaceOnUse">
				<stop  offset="0" style="stop-color:#F7941D"/>
				<stop  offset="1" style="stop-color:#EF4136"/>
			</radialGradient>
			<path style="fill:url(#SVGID_00000023990924905811796330000006510040767711164333_);" d="M3443.488,2282.936
				c12.293-56.285,50.788-104.326,103.021-130.517c26.117-13.092,60.15-28.034,85.206-4.258
				c11.279,10.801,13.397,22.81,3.929,41.216c-9.47,18.406-37.684,43.299-25.013,68.973c7.065,14.316,30.458,23.247,48.519,38.225
				c9.844,8.164,22.666,19.41,24.687,39.45c2.02,20.039-9.47,32.468-12.106,34.888c-6.299,5.779-14.282,9.929-22.434,12.118
				c-41.047,10.943-85.654,5.063-123.595-13.809c-31.404-15.621-58.241-40.141-74.709-71.385
				C3448.445,2293.114,3445.946,2288.161,3443.488,2282.936z"/>
			
				<radialGradient id="SVGID_00000074419500919975730590000005642526374582908088_" cx="1952.448" cy="2705.6304" r="124.511" gradientTransform="matrix(-0.7686 -0.6397 -0.6397 0.7686 6351.5801 877.4604)" gradientUnits="userSpaceOnUse">
				<stop  offset="0" style="stop-color:#F7941D"/>
				<stop  offset="1" style="stop-color:#EF4136"/>
			</radialGradient>
			<path style="fill:url(#SVGID_00000074419500919975730590000005642526374582908088_);" d="M3061.95,1809.052
				c-40.618-40.856-60.102-99.253-53.776-157.341c3.166-29.043,9.074-65.74,42.637-73.894c15.192-3.619,26.431,1.116,36.76,19.054
				c10.327,17.938,15.938,55.143,44.379,58.423c15.86,1.83,36.051-12.981,58.43-20.031c12.197-3.841,28.601-8.515,46.533,0.658
				c17.93,9.172,22.142,25.565,22.744,29.093c1.438,8.426,0.596,17.384-1.987,25.419c-13.069,40.42-42.203,74.707-78.636,96.347
				c-30.156,17.911-65.313,27.158-100.493,24.048C3073.189,1810.407,3067.674,1809.82,3061.95,1809.052z"/>
			
				<radialGradient id="SVGID_00000076571355185505509300000015315620513748782738_" cx="2337.0889" cy="2886.2659" r="124.5083" gradientTransform="matrix(-0.957 -0.2901 -0.2901 0.957 5866.6216 -500.6661)" gradientUnits="userSpaceOnUse">
				<stop  offset="0" style="stop-color:#F7941D"/>
				<stop  offset="1" style="stop-color:#EF4136"/>
			</radialGradient>
			<path style="fill:url(#SVGID_00000076571355185505509300000015315620513748782738_);" d="M2778.445,1699.207
				c-53.318-21.824-93.994-68.033-110.776-124.001c-8.388-27.986-17.231-64.088,10.513-84.663c12.586-9.247,24.78-9.26,41.276,3.244
				c16.495,12.503,36.145,44.591,63.62,36.541c15.321-4.487,28.155-25.989,46.025-41.193c9.74-8.286,23.029-18.975,43.118-17.506
				c20.087,1.47,30.347,14.931,32.276,17.946c4.604,7.202,7.313,15.782,8.063,24.189c3.694,42.319-9.797,85.242-34.934,119.357
				c-20.808,28.236-49.592,50.438-83.208,61.266C2789.326,1696.081,2784.018,1697.687,2778.445,1699.207z"/>
			
				<radialGradient id="SVGID_00000054969494523981547180000000318400571661271709_" cx="1055.4038" cy="1977.4161" r="124.5075" gradientTransform="matrix(0.303 -0.953 -0.953 -0.303 5202.9517 4135.9556)" gradientUnits="userSpaceOnUse">
				<stop  offset="0" style="stop-color:#F7941D"/>
				<stop  offset="1" style="stop-color:#EF4136"/>
			</radialGradient>
			<path style="fill:url(#SVGID_00000054969494523981547180000000318400571661271709_);" d="M3522.76,2515.158
				c22.544-53.018,69.299-93.065,125.49-109.089c28.096-8.009,64.313-16.363,84.512,11.656c9.076,12.71,8.923,24.903-3.802,41.229
				c-12.727,16.325-45.076,35.538-37.399,63.12c4.28,15.381,25.605,28.504,40.566,46.578c8.155,9.852,18.663,23.285,16.922,43.353
				c-1.74,20.064-15.339,30.142-18.381,32.029c-7.263,4.506-15.879,7.101-24.295,7.735c-42.365,3.121-85.103-10.949-118.873-36.546
				c-27.952-21.188-49.763-50.269-60.136-84.029C3525.74,2526.08,3524.204,2520.749,3522.76,2515.158z"/>
			
				<radialGradient id="SVGID_00000131348258708450048830000017702881801362455435_" cx="664.0728" cy="1937.8535" r="124.5082" gradientTransform="matrix(0.5996 -0.8003 -0.8003 -0.5996 4762.251 4467.0269)" gradientUnits="userSpaceOnUse">
				<stop  offset="0" style="stop-color:#F7941D"/>
				<stop  offset="1" style="stop-color:#EF4136"/>
			</radialGradient>
			<path style="fill:url(#SVGID_00000131348258708450048830000017702881801362455435_);" d="M3505.705,2720.678
				c38.729-42.652,96.057-65.088,154.392-61.736c29.166,1.68,66.116,5.704,75.973,38.811c4.39,14.986,0.235,26.451-17.152,37.682
				c-17.39,11.229-54.258,18.731-56.081,47.305c-1.019,15.932,14.804,35.341,22.986,57.33c4.459,11.985,9.963,28.129,1.718,46.506
				s-24.401,23.418-27.895,24.2c-8.341,1.866-17.331,1.481-25.487-0.688c-41.035-10.988-76.765-38.335-100.235-73.615
				c-19.427-29.203-30.456-63.841-29.146-99.135C3504.925,2731.972,3505.23,2726.432,3505.705,2720.678z"/>
			
				<radialGradient id="SVGID_00000133500852040462232010000004554946724322429366_" cx="1897.6028" cy="2194.832" r="101.3257" gradientTransform="matrix(-0.188 -0.9822 -0.9822 0.188 6064.1519 3282.5093)" gradientUnits="userSpaceOnUse">
				<stop  offset="0" style="stop-color:#F7941D"/>
				<stop  offset="1" style="stop-color:#EF4136"/>
			</radialGradient>
			<path style="fill:url(#SVGID_00000133500852040462232010000004554946724322429366_);" d="M3462.864,1864.795
				c-4.443-46.675,13.466-93.466,47.447-126.731c16.992-16.63,39.66-36.659,64.981-24.452c11.424,5.571,16.046,14.353,13.277,30.969
				c-2.771,16.617-18.459,42.914-2.265,59.666c9.029,9.342,29.378,10.457,47.093,17.582c9.655,3.883,22.386,9.417,28.926,24.447
				c6.54,15.03,0.722,27.515-0.722,30.045c-3.448,6.042-8.604,11.24-14.38,14.96c-29.096,18.672-65.129,25.187-99.219,19.979
				c-28.218-4.311-55.104-16.654-75.623-36.781C3469.232,1871.452,3466.066,1868.234,3462.864,1864.795z"/>
			
				<radialGradient id="SVGID_00000025410160575343849500000001110647033495737241_" cx="2608.6377" cy="3059.5576" r="101.3251" gradientTransform="matrix(-0.9547 -0.2977 -0.2977 0.9547 6165.5645 -775.1917)" gradientUnits="userSpaceOnUse">
				<stop  offset="0" style="stop-color:#F7941D"/>
				<stop  offset="1" style="stop-color:#EF4136"/>
			</radialGradient>
			<path style="fill:url(#SVGID_00000025410160575343849500000001110647033495737241_);" d="M2751.903,1463.248
				c-43.249-18.104-76.055-55.972-89.351-101.628c-6.646-22.829-13.609-52.265,9.102-68.831c10.302-7.443,20.225-7.375,33.568,2.906
				c13.345,10.283,29.129,36.521,51.539,30.148c12.498-3.553,23.082-20.968,37.722-33.226c7.98-6.68,18.865-15.294,35.204-13.969
				c16.336,1.325,24.6,12.347,26.148,14.813c3.702,5.892,5.852,12.891,6.406,19.737c2.734,34.463-8.522,69.308-29.198,96.907
				c-17.115,22.846-40.684,40.727-68.111,49.322C2760.778,1460.773,2756.447,1462.046,2751.903,1463.248z"/>
			
				<radialGradient id="SVGID_00000023997267209222878090000017023778727376293268_" cx="2417.8499" cy="2759.7864" r="91.8806" gradientTransform="matrix(-0.8401 -0.5424 -0.5424 0.8401 6514.2202 400.4636)" gradientUnits="userSpaceOnUse">
				<stop  offset="0" style="stop-color:#F7941D"/>
				<stop  offset="1" style="stop-color:#EF4136"/>
			</radialGradient>
			<path style="fill:url(#SVGID_00000023997267209222878090000017023778727376293268_);" d="M2952.433,1486.697
				c-33.388-26.318-52.853-67.366-53.382-110.481c-0.264-21.557,0.801-48.964,24.663-57.922c10.809-4.001,19.461-1.532,28.622,10.69
				c9.16,12.224,16.579,38.979,37.705,38.852c11.78-0.069,25.256-12.713,41.021-19.868c8.594-3.898,20.194-8.781,34.146-3.656
				c13.95,5.125,18.494,16.759,19.248,19.291c1.805,6.045,1.982,12.682,0.805,18.798c-5.979,30.772-24.274,58.479-49.039,77.571
				c-20.499,15.802-45.432,25.702-71.479,26.551C2960.787,1486.69,2956.694,1486.75,2952.433,1486.697z"/>
			
				<radialGradient id="SVGID_00000104696515106634049850000004146527244899606913_" cx="1281.9933" cy="2240.7175" r="101.3311" gradientTransform="matrix(0.2991 -0.9542 -0.9542 -0.2991 5562.2656 4124.4424)" gradientUnits="userSpaceOnUse">
				<stop  offset="0" style="stop-color:#F7941D"/>
				<stop  offset="1" style="stop-color:#EF4136"/>
			</radialGradient>
			<path style="fill:url(#SVGID_00000104696515106634049850000004146527244899606913_);" d="M3713.566,2218.457
				c18.171-43.222,56.089-75.968,101.766-89.195c22.838-6.611,52.285-13.53,68.816,9.206c7.428,10.313,7.345,20.237-2.957,33.564
				c-10.303,13.328-36.566,29.072-30.227,51.494c3.533,12.504,20.933,23.112,33.168,37.771c6.668,7.991,15.266,18.889,13.916,35.226
				c-1.352,16.334-12.385,24.582-14.854,26.127c-5.896,3.691-12.898,5.831-19.747,6.375c-34.468,2.682-69.294-8.629-96.862-29.347
				c-22.819-17.151-40.665-40.746-49.219-68.186C3716.028,2227.337,3714.762,2223.004,3713.566,2218.457z"/>
			
				<radialGradient id="SVGID_00000119091150572065190810000012591664278779338378_" cx="1511.9082" cy="2452.689" r="101.3318" gradientTransform="matrix(-0.1268 -0.9919 -0.9919 0.1268 6351.2905 3220.167)" gradientUnits="userSpaceOnUse">
				<stop  offset="0" style="stop-color:#F7941D"/>
				<stop  offset="1" style="stop-color:#EF4136"/>
			</radialGradient>
			<path style="fill:url(#SVGID_00000119091150572065190810000012591664278779338378_);" d="M3636.08,2059.425
				c-1.543-46.861,19.23-92.452,55.207-123.548c17.989-15.546,41.855-34.132,66.372-20.38c11.057,6.268,15.125,15.32,11.333,31.731
				c-3.795,16.413-21.082,41.688-5.956,59.412c8.434,9.885,28.673,12.256,45.913,20.464c9.396,4.475,21.76,10.786,27.356,26.193
				c5.596,15.406-0.984,27.508-2.582,29.943c-3.815,5.817-9.284,10.685-15.278,14.041c-30.197,16.833-66.564,21.103-100.268,13.794
				c-27.896-6.053-53.966-20.037-73.199-41.395C3642.025,2066.465,3639.065,2063.057,3636.08,2059.425z"/>
			
				<radialGradient id="SVGID_00000163038229788978346830000000832133619903880370_" cx="1037.9081" cy="2105.6079" r="101.3309" gradientTransform="matrix(0.2991 -0.9542 -0.9542 -0.2991 5562.2656 4124.4424)" gradientUnits="userSpaceOnUse">
				<stop  offset="0" style="stop-color:#F7941D"/>
				<stop  offset="1" style="stop-color:#EF4136"/>
			</radialGradient>
			<path style="fill:url(#SVGID_00000163038229788978346830000000832133619903880370_);" d="M3769.482,2491.774
				c18.172-43.222,56.088-75.968,101.765-89.195c22.838-6.61,52.285-13.53,68.817,9.206c7.428,10.313,7.344,20.237-2.957,33.564
				c-10.304,13.328-36.567,29.073-30.228,51.493c3.533,12.504,20.934,23.112,33.169,37.772c6.668,7.99,15.266,18.888,13.915,35.225
				c-1.351,16.334-12.384,24.582-14.854,26.127c-5.896,3.691-12.898,5.831-19.745,6.376c-34.468,2.683-69.295-8.63-96.864-29.347
				c-22.818-17.15-40.665-40.746-49.218-68.186C3771.943,2500.654,3770.677,2496.322,3769.482,2491.774z"/>
			
				<radialGradient id="SVGID_00000130620923442204979770000011022014167991930018_" cx="684.4736" cy="2021.2344" r="101.3278" gradientTransform="matrix(0.636 -0.7717 -0.7717 -0.636 4975.0552 4595.3208)" gradientUnits="userSpaceOnUse">
				<stop  offset="0" style="stop-color:#F7941D"/>
				<stop  offset="1" style="stop-color:#EF4136"/>
			</radialGradient>
			<path style="fill:url(#SVGID_00000130620923442204979770000011022014167991930018_);" d="M3768.152,2734.647
				c33.092-33.216,80.541-49.298,127.838-44.376c23.648,2.463,53.535,7.127,60.303,34.41c3.004,12.349-0.805,21.514-15.363,29.988
				s-44.814,13.187-47.372,36.346c-1.429,12.914,10.704,29.287,16.528,47.473c3.174,9.911,7.042,23.241-0.353,37.871
				c-7.396,14.628-20.72,18.121-23.589,18.623c-6.853,1.204-14.145,0.553-20.695-1.518c-32.945-10.477-60.961-34.055-78.715-63.619
				c-14.694-24.473-22.357-53.048-19.963-81.689C3767.094,2743.801,3767.549,2739.311,3768.152,2734.647z"/>
			
				<radialGradient id="SVGID_00000031193775131634522560000016922595443841075336_" cx="2166.9185" cy="2363.137" r="101.3318" gradientTransform="matrix(-0.6063 -0.7952 -0.7952 0.6063 6573.8403 1978.2117)" gradientUnits="userSpaceOnUse">
				<stop  offset="0" style="stop-color:#F7941D"/>
				<stop  offset="1" style="stop-color:#EF4136"/>
			</radialGradient>
			<path style="fill:url(#SVGID_00000031193775131634522560000016922595443841075336_);" d="M3316.349,1757.41
				c-24.794-39.793-29.634-89.661-14.057-134.59c7.792-22.463,19.147-50.499,47.255-50.867c12.71-0.108,20.764,5.69,25.696,21.797
				c4.931,16.108,2.619,46.642,24.584,54.413c12.249,4.335,30.958-3.744,49.991-5.268c10.375-0.831,24.236-1.556,36.794,8.98
				c12.557,10.535,12.917,24.305,12.754,27.214c-0.39,6.946-2.688,13.898-6.197,19.803c-17.714,29.689-47.06,51.591-79.894,62.134
				c-27.179,8.727-56.748,9.671-84.09,0.808C3325.018,1760.528,3320.748,1759.06,3316.349,1757.41z"/>
			
				<radialGradient id="SVGID_00000171680230988944451530000006126889733216967325_" cx="2397.3147" cy="2468.3232" r="101.3226" gradientTransform="matrix(-0.822 -0.5696 -0.5696 0.822 6555.7549 870.2672)" gradientUnits="userSpaceOnUse">
				<stop  offset="0" style="stop-color:#F7941D"/>
				<stop  offset="1" style="stop-color:#EF4136"/>
			</radialGradient>
			<path style="fill:url(#SVGID_00000171680230988944451530000006126889733216967325_);" d="M3139.273,1619.786
				c-35.854-30.21-55.834-76.156-54.868-123.699c0.486-23.771,2.646-53.943,29.27-62.958c12.058-4.021,21.505-0.989,31.165,12.812
				c9.658,13.803,16.871,43.562,40.163,44.183c12.988,0.347,28.296-13.106,45.932-20.425c9.612-3.989,22.575-8.953,37.77-2.802
				c15.193,6.151,19.782,19.139,20.524,21.956c1.77,6.728,1.727,14.049,0.209,20.749c-7.697,33.705-28.859,63.587-56.844,83.741
				c-23.164,16.681-51.002,26.696-79.743,26.696C3148.482,1620.08,3143.969,1619.999,3139.273,1619.786z"/>
			<path style="fill-rule:evenodd;clip-rule:evenodd;fill:#000;" d="M2594.023,3699.366c0,0-70.671,18.662-123.588,18.662
				s-124.946-18.662-124.946-18.662s55.708-721.152,48.438-728.836c-1.972-2.083-3.888-4.135-5.767-6.149
				c-6.084-6.501-11.833-12.608-18.117-18.13c-18.868-16.59-34.454-38.737-49.104-59.314c-12.633-17.744-20.838-39.24-34.172-57.463
				c-12.451-17.019-27.297-31.734-38.506-50.189c-3.874-6.377-10.325-12.395-11.986-20.213c2.251-2.206,4.512-4.075,6.767-5.643
				c11.586-8.032,23.125-7.99,33.841-3.771c17.883,7.032,33.469,25.692,43.153,37.85c0.055,0.07,0.11,0.145,0.162,0.214
				c1.688,2.145,3.191,4.577,4.652,7.056c5.004,8.461,9.562,17.465,19.222,17.484c11.549-11.247,12.479-37.508,8.544-62.437
				c-0.66-4.195-1.46-8.353-2.372-12.396c-3.823-17.014-13.642-38.612-23.72-59.594c-4.842-10.074-9.745-20.009-14.07-29.223
				c-2.595-5.525-8.567-17.775-13.856-31.623c-9.428-24.659-16.696-54.365,1.135-60.086c15.884-5.088,24.642,11.875,32.642,25.878
				c18.241,31.935,27.599,56.679,41.734,86.24c2.46,5.149,5.447,11.99,8.679,18.409c5.32,10.567,11.325,19.998,16.809,18.879
				c7.2-1.466,6.297-24.739,4.875-44.855c-0.316-4.512-0.661-8.865-0.95-12.776c-1.608-22.032-3.888-44.394-5.399-65.026
				c-1.977-27.106-14.938-82.682,13.567-84.156c15.763-0.817,20.487,8.702,24.721,30.609c7.628,39.515,10.521,88.086,16.627,125.56
				c2.88,17.646,6.596,45.804,18.093,46.612c11.497,0.814,15.125-23.288,18.883-38.18c3.967-15.726,8.047-33.166,11.163-50
				c3.921-21.208,4.126-91.793,31.893-90.513c19.878,0.92,16.642,30.604,15.521,42.678c-1.842,19.859-4.609,37.692-6.74,51.608
				c-1.925,12.553-4.813,28.272-7.167,43.603c-4.366,28.465-6.884,55.585,2.042,58.641c7.298,2.498,16.428-8.321,25.181-22.399
				c7.726-12.423,15.157-27.381,20.78-37.976c11.346-21.362,29.726-65.464,51.111-52.497c2.563,1.554,4.037,4.038,4.613,7.293
				c2.404,13.576-10.771,40.549-25.245,69.124c-10.819,21.371-22.358,43.646-28.646,61.878c-0.099,0.284-0.19,0.568-0.288,0.852
				c-9.125,27.022-7.498,62.055-10.278,95.881c-0.251,3.069-0.54,6.13-0.875,9.172c-0.968,8.768-1.823,19.26-2.894,30.297
				c-2.074,21.386-4.943,44.794-10.916,61.57c-2.26,6.35-5.869,11.582-9.562,15.488c-0.22,0.228-0.19,1.582,0.065,3.958
				C2553.014,2993.466,2594.023,3699.366,2594.023,3699.366z"/>
	<text
    x="1200"
    y="2400"
    font-size="130"
	font-family="Times New Roman"
    font-style="italic"
    fill="#FFFFFF"
    transform="rotate(-90 2460 2350)">
    ❤️K&amp;A❤️
</text>
		</g>
	</g>
</g>




</svg>
